<svg width="50" height="50" viewBox="0 0 50 50" fill="none" xmlns="http://www.w3.org/2000/svg">
<path d="M25.0002 8.33333C33.5002 8.33333 40.521 14.6875 41.5418 22.9167H33.0835C32.146 19.3125 28.8752 16.6667 25.0002 16.6667C21.1252 16.6667 17.8543 19.3125 16.9377 22.9167H8.4585C9.47933 14.6875 16.5002 8.33333 25.0002 8.33333Z" fill="#DF324F"/>
<path d="M24.9998 4.16667C13.4998 4.16667 4.1665 13.5 4.1665 25C4.1665 36.5 13.4998 45.8333 24.9998 45.8333C36.4998 45.8333 45.8332 36.5 45.8332 25C45.8332 13.5 36.4998 4.16667 24.9998 4.16667ZM24.9998 8.33334C33.4998 8.33334 40.5207 14.6875 41.5415 22.9167H33.0832C32.1457 19.3125 28.8748 16.6667 24.9998 16.6667C21.1248 16.6667 17.854 19.3125 16.9373 22.9167H8.45817C9.479 14.6875 16.4998 8.33334 24.9998 8.33334ZM29.1665 25C29.1665 27.2917 27.2915 29.1667 24.9998 29.1667C22.7082 29.1667 20.8332 27.2917 20.8332 25C20.8332 22.7083 22.7082 20.8333 24.9998 20.8333C27.2915 20.8333 29.1665 22.7083 29.1665 25ZM24.9998 41.6667C16.4998 41.6667 9.479 35.3125 8.45817 27.0833H16.9165C17.8332 30.6875 21.104 33.3333 24.979 33.3333C28.854 33.3333 32.1248 30.6875 33.0415 27.0833H41.4998C40.5207 35.3125 33.4998 41.6667 24.9998 41.6667Z" fill="black"/>
</svg>
