<svg width="23" height="20" viewBox="0 0 23 20" fill="none" xmlns="http://www.w3.org/2000/svg">
	<path fill-rule="evenodd" clip-rule="evenodd" d="M23 10C23 10.3647 22.8552 10.7144 22.5973 10.9723C22.3394 11.2301 21.9897 11.375 21.625 11.375H5.69427L11.5985 17.2765C11.7264 17.4043 11.8278 17.5561 11.897 17.7231C11.9661 17.8902 12.0018 18.0692 12.0018 18.25C12.0018 18.4308 11.9661 18.6098 11.897 18.7769C11.8278 18.9439 11.7264 19.0957 11.5985 19.2235C11.4707 19.3513 11.3189 19.4527 11.1519 19.5219C10.9848 19.5911 10.8058 19.6267 10.625 19.6267C10.4442 19.6267 10.2652 19.5911 10.0982 19.5219C9.93113 19.4527 9.77936 19.3513 9.65152 19.2235L1.40152 10.9735C1.27347 10.8458 1.17187 10.694 1.10256 10.527C1.03324 10.3599 0.997559 10.1809 0.997559 10C0.997559 9.81914 1.03324 9.64005 1.10256 9.47301C1.17187 9.30596 1.27347 9.15422 1.40152 9.0265L9.65152 0.776498C9.9097 0.518309 10.2599 0.37326 10.625 0.37326C10.9901 0.37326 11.3403 0.518309 11.5985 0.776498C11.8567 1.03469 12.0018 1.38486 12.0018 1.75C12.0018 2.11513 11.8567 2.46531 11.5985 2.7235L5.69427 8.625H21.625C21.9897 8.625 22.3394 8.76986 22.5973 9.02773C22.8552 9.28559 23 9.63533 23 10Z" fill="#F2F2F2"/>
</svg>
