<svg width="20" height="15" viewBox="0 0 20 15" fill="none" xmlns="http://www.w3.org/2000/svg">
<path d="M0.999963 15H19C19.1822 14.9994 19.3608 14.9491 19.5166 14.8546C19.6724 14.7601 19.7995 14.6248 19.8842 14.4634C19.9688 14.302 20.0078 14.1206 19.9971 13.9387C19.9863 13.7568 19.9261 13.5812 19.823 13.431L10.823 0.430983C10.45 -0.108017 9.55196 -0.108017 9.17796 0.430983L0.177963 13.431C0.0737882 13.5809 0.0126975 13.7566 0.00132857 13.9388C-0.0100404 14.121 0.0287473 14.3029 0.113477 14.4646C0.198207 14.6263 0.325639 14.7617 0.481928 14.8561C0.638216 14.9505 0.817383 15.0003 0.999963 15Z" fill="#3166AB"/>
</svg>
